Coordinates
version=1
nRows=24
nColumns=22
inDegrees=yes

Units are S.I. units (second, meters, Newtons, ...)
If the header above contains a line with 'inDegrees', this indicates whether rotational values are in degrees (yes) or radians (no).

endheader
time	pelvis_tilt	pelvis_list	pelvis_rotation	pelvis_tx	pelvis_ty	pelvis_tz	hip_flexion_r	hip_adduction_r	hip_rotation_r	knee_angle_r	ankle_angle_r	subtalar_angle_r	hip_flexion_l	hip_adduction_l	hip_rotation_l	knee_angle_l	ankle_angle_l	subtalar_angle_l	lumbar_extension	lumbar_bending	lumbar_rotation
      3.69000000	      0.28980486	      0.60982242	    180.72168927	      0.26211286	      0.99641335	     -0.02181838	      4.27072076	      5.33544607	     -4.57390547	    -24.70498942	     20.27200966	     -3.52236928	     22.85255281	     -0.68412179	     -4.46477490	    -12.89864516	      4.73356633	      7.22602357	    -15.29833790	      1.15439626	      6.25934647
      3.70000000	      0.25439135	      0.53524911	    180.74239131	      0.26649108	      0.99766291	     -0.02253635	      4.37936520	      5.31511080	     -4.53622755	    -24.46618482	     19.98308523	     -3.49784357	     22.79813720	     -0.69437589	     -4.18711771	    -13.50081722	      4.66554691	      6.90828864	    -15.27410976	      1.07151794	      6.17220279
      3.71000000	      0.21313800	      0.46078855	    180.75056391	      0.27064276	      0.99894389	     -0.02325761	      4.43003728	      5.29625127	     -4.49761217	    -24.15612694	     19.65897654	     -3.47430854	     22.69819354	     -0.68747475	     -3.66919880	    -14.13172694	      4.59468223	      6.70698351	    -15.24607967	      0.98201875	      6.11630232
      3.72000000	      0.16216622	      0.39875600	    180.75901942	      0.27463940	      1.00020097	     -0.02393986	      4.44557276	      5.28922609	     -4.45616698	    -23.81949637	     19.35743197	     -3.45687299	     22.56155792	     -0.66628023	     -2.89571147	    -14.79858353	      4.55363917	      6.50972343	    -15.23052230	      0.91139082	      6.04720871
      3.73000000	      0.08743645	      0.34205203	    180.76260257	      0.27848743	      1.00143493	     -0.02457936	      4.42467114	      5.27991940	     -4.43979288	    -23.48140152	     19.06861475	     -3.43881115	     22.38365554	     -0.62920018	     -1.96932830	    -15.51428777	      4.53623736	      6.30258030	    -15.24439902	      0.85160828	      5.95954442
      3.74000000	      0.02260582	      0.28969778	    180.71329601	      0.28216069	      1.00260662	     -0.02524797	      4.39564626	      5.27328278	     -4.38216993	    -23.12235472	     18.77740134	     -3.39965357	     22.17307838	     -0.59384033	     -0.96085943	    -16.23412016	      4.52874096	      6.21350373	    -15.23891627	      0.78597831	      5.95971522
      3.75000000	     -0.05448956	      0.24067687	    180.63307657	      0.28571590	      1.00370759	     -0.02588750	      4.35897034	      5.26347910	     -4.30356971	    -22.78857012	     18.50914637	     -3.34175206	     21.92978554	     -0.55436445	      0.08002331	    -16.98648633	      4.56840237	      6.16267587	    -15.25201399	      0.72773550	      5.96765230
      3.76000000	     -0.15387708	      0.19734305	    180.51709928	      0.28917290	      1.00474297	     -0.02651260	      4.31578835	      5.25275501	     -4.20476095	    -22.49941906	     18.26117365	     -3.25202581	     21.65073905	     -0.52166499	      1.08073278	    -17.78056985	      4.65253744	      6.13874505	    -15.29889178	      0.67628962	      5.98191005
      3.77000000	     -0.24792407	      0.16468794	    180.35144124	      0.29249336	      1.00568216	     -0.02715021	      4.28013449	      5.24888312	     -4.06681817	    -22.22676035	     18.03030651	     -3.13615056	     21.35664543	     -0.51014926	      1.99236989	    -18.60016614	      4.78235496	      6.14756585	    -15.33645869	      0.63085587	      6.05511266
      3.78000000	     -0.33394146	      0.14668781	    180.14215579	      0.29569736	      1.00651521	     -0.02779232	      4.26068910	      5.25452523	     -3.90349651	    -21.97975802	     17.81780585	     -3.00234867	     21.06037276	     -0.52649161	      2.77818845	    -19.45478396	      4.96651400	      6.16895390	    -15.36517786	      0.59910323	      6.16821528
      3.79000000	     -0.41899212	      0.15231406	    179.90165848	      0.29879943	      1.00724930	     -0.02845437	      4.25624606	      5.28093558	     -3.73162166	    -21.77005457	     17.61852268	     -2.84196018	     20.76413234	     -0.58263425	      3.41505869	    -20.35118772	      5.20582709	      6.19060694	    -15.39515704	      0.58674768	      6.30073084
      3.80000000	     -0.52043343	      0.18251206	    179.62766008	      0.30182294	      1.00792527	     -0.02912552	      4.25393881	      5.32618746	     -3.55180035	    -21.60741177	     17.42956113	     -2.52868971	     20.45123338	     -0.68291665	      3.88095638	    -21.28469798	      5.47138895	      6.22820908	    -15.45390508	      0.60064735	      6.44287457
      3.81000000	     -0.58507055	      0.24117450	    179.33090504	      0.30473065	      1.00843907	     -0.02982221	      4.29488498	      5.40215089	     -3.37088577	    -21.46354891	     17.26180471	     -2.38171112	     20.18802517	     -0.83312564	      4.17147772	    -22.26890236	      5.82697725	      6.21301959	    -15.46594337	      0.63978809	      6.60620161
      3.82000000	     -0.65011566	      0.32781845	    179.01278742	      0.30753831	      1.00887826	     -0.03054567	      4.34283896	      5.50928314	     -3.17316978	    -21.34637146	     17.09272021	     -2.17548914	     19.92599730	     -1.03392474	      4.29492481	    -23.28055880	      6.22004984	      6.18148461	    -15.48222895	      0.70566945	      6.77883892
      3.83000000	     -0.71063829	      0.43336477	    178.68215506	      0.31023509	      1.00924027	     -0.03127783	      4.39985869	      5.63828720	     -2.95859224	    -21.25314710	     16.93662838	     -1.94286320	     19.66566133	     -1.27277085	      4.27718734	    -24.30725850	      6.65873239	      6.12084501	    -15.49429039	      0.79037773	      6.94984725
      3.84000000	     -0.76775848	      0.56017890	    178.34996418	      0.31282649	      1.00952974	     -0.03202988	      4.46154592	      5.79487322	     -2.73101135	    -21.17856801	     16.78694328	     -1.70535611	     19.40669404	     -1.55125701	      4.13889345	    -25.34432346	      7.15055605	      6.01914743	    -15.50441983	      0.89255574	      7.10847519
      3.85000000	     -0.81884399	      0.70251360	    178.01740892	      0.31534509	      1.00976299	     -0.03280365	      4.53615734	      5.97674105	     -2.46439100	    -21.13118966	     16.62534244	     -1.43579680	     19.14735885	     -1.86146001	      3.90612059	    -26.37486733	      7.65117747	      5.84637056	    -15.51545875	      1.00852293	      7.22773958
      3.86000000	     -0.86801830	      0.85763595	    177.71427257	      0.31773183	      1.00994431	     -0.03352908	      4.59835566	      6.16902880	     -2.24809066	    -21.07473034	     16.48547227	     -1.23723568	     18.88600108	     -2.18917474	      3.61032271	    -27.40077089	      8.20786771	      5.63914276	    -15.52159031	      1.14316384	      7.31494973
      3.87000000	     -0.90224828	      1.01990926	    177.42472998	      0.32000089	      1.01008468	     -0.03425073	      4.65915419	      6.37276404	     -2.03587907	    -21.00222606	     16.33224050	     -1.02382424	     18.62840312	     -2.53360502	      3.24949726	    -28.40070992	      8.75113621	      5.33059312	    -15.50972847	      1.28337407	      7.37599060
      3.88000000	     -0.93308831	      1.19311792	    177.16041959	      0.32220250	      1.01018565	     -0.03493414	      4.72893678	      6.58770427	     -1.84742890	    -20.95498905	     16.20039555	     -0.84244607	     18.36131952	     -2.88461747	      2.89174652	    -29.36161007	      9.31994666	      4.96119488	    -15.50293033	      1.43897558	      7.39813461
      3.89000000	     -0.95229997	      1.38255305	    176.92966792	      0.32430470	      1.01026037	     -0.03559071	      4.78453790	      6.82697695	     -1.65399221	    -20.87418521	     16.06434046	     -0.72886768	     18.09373270	     -3.24503445	      2.54915116	    -30.27736805	      9.90575295	      4.68231127	    -15.48426474	      1.61501710	      7.36493795
      3.90000000	     -0.95290871	      1.55754115	    176.70781579	      0.32629087	      1.01031430	     -0.03619883	      4.84829765	      7.04486098	     -1.48848965	    -20.78510579	     15.92407053	     -0.56080028	     17.82250631	     -3.58930758	      2.17042075	    -31.12398744	     10.45894615	      4.22478060	    -15.44035761	      1.77883164	      7.32152320
      3.91000000	     -0.95051388	      1.72781389	    176.51377751	      0.32821332	      1.01036099	     -0.03672418	      4.92062667	      7.25371262	     -1.34272849	    -20.71805414	     15.80735313	     -0.40150710	     17.53109850	     -3.90652470	      1.83722121	    -31.88928712	     11.02984781	      3.77017819	    -15.39953871	      1.94630045	      7.23293471
      3.92000000	     -0.93682397	      1.89057296	    176.34434546	      0.33002645	      1.01041386	     -0.03716548	      4.98527331	      7.45016972	     -1.21357496	    -20.62502717	     15.68645145	     -0.24764432	     17.22780978	     -4.19958607	      1.51497559	    -32.56760087	     11.59027251	      3.35967739	    -15.34195786	      2.11463747	      7.11343664
